<mxfile host="app.diagrams.net" modified="2023-09-25T13:15:01.492Z" agent="Mozilla/5.0 (Windows NT 10.0; Win64; x64) AppleWebKit/537.36 (KHTML, like Gecko) Chrome/117.0.0.0 Safari/537.36 Edg/117.0.2045.36" etag="0UbPpLR3cMJt6E7WPaSO" version="21.7.5" type="github">
  <diagram name="Trang-1" id="TraYB9fvLfT9wYXubWQ_">
    <mxGraphModel dx="565" dy="310" grid="1" gridSize="10" guides="1" tooltips="1" connect="1" arrows="1" fold="1" page="1" pageScale="1" pageWidth="827" pageHeight="1169" math="0" shadow="0">
      <root>
        <mxCell id="0" />
        <mxCell id="1" parent="0" />
        <mxCell id="Xpk1lyzwH7vKFddRfPGM-1" value="Khoa" style="whiteSpace=wrap;html=1;align=center;" vertex="1" parent="1">
          <mxGeometry x="250" y="720" width="100" height="40" as="geometry" />
        </mxCell>
        <mxCell id="Xpk1lyzwH7vKFddRfPGM-3" value="" style="endArrow=none;html=1;rounded=0;entryX=0.5;entryY=0;entryDx=0;entryDy=0;exitX=0.5;exitY=1;exitDx=0;exitDy=0;" edge="1" parent="1" source="Xpk1lyzwH7vKFddRfPGM-8" target="Xpk1lyzwH7vKFddRfPGM-1">
          <mxGeometry relative="1" as="geometry">
            <mxPoint x="180" y="670" as="sourcePoint" />
            <mxPoint x="350" y="690" as="targetPoint" />
          </mxGeometry>
        </mxCell>
        <mxCell id="Xpk1lyzwH7vKFddRfPGM-5" value="Trường" style="whiteSpace=wrap;html=1;align=center;" vertex="1" parent="1">
          <mxGeometry x="590" y="490" width="100" height="40" as="geometry" />
        </mxCell>
        <mxCell id="Xpk1lyzwH7vKFddRfPGM-8" value="Mã khoa" style="ellipse;whiteSpace=wrap;html=1;align=center;fontStyle=4;" vertex="1" parent="1">
          <mxGeometry x="120" y="610" width="100" height="40" as="geometry" />
        </mxCell>
        <mxCell id="Xpk1lyzwH7vKFddRfPGM-9" value="Tên khoa" style="ellipse;whiteSpace=wrap;html=1;align=center;" vertex="1" parent="1">
          <mxGeometry x="170" y="500" width="100" height="40" as="geometry" />
        </mxCell>
        <mxCell id="Xpk1lyzwH7vKFddRfPGM-10" value="" style="endArrow=none;html=1;rounded=0;exitX=0.5;exitY=1;exitDx=0;exitDy=0;entryX=0.5;entryY=0;entryDx=0;entryDy=0;" edge="1" parent="1" source="Xpk1lyzwH7vKFddRfPGM-9" target="Xpk1lyzwH7vKFddRfPGM-1">
          <mxGeometry relative="1" as="geometry">
            <mxPoint x="440" y="710" as="sourcePoint" />
            <mxPoint x="280" y="710" as="targetPoint" />
          </mxGeometry>
        </mxCell>
        <mxCell id="Xpk1lyzwH7vKFddRfPGM-11" value="Địa chỉ" style="ellipse;whiteSpace=wrap;html=1;align=center;" vertex="1" parent="1">
          <mxGeometry x="280" y="580" width="100" height="40" as="geometry" />
        </mxCell>
        <mxCell id="Xpk1lyzwH7vKFddRfPGM-12" value="Số điện thoại" style="ellipse;whiteSpace=wrap;html=1;align=center;" vertex="1" parent="1">
          <mxGeometry x="364" y="620" width="100" height="40" as="geometry" />
        </mxCell>
        <mxCell id="Xpk1lyzwH7vKFddRfPGM-13" value="" style="endArrow=none;html=1;rounded=0;exitX=0.5;exitY=0;exitDx=0;exitDy=0;entryX=0.5;entryY=1;entryDx=0;entryDy=0;" edge="1" parent="1" source="Xpk1lyzwH7vKFddRfPGM-1" target="Xpk1lyzwH7vKFddRfPGM-12">
          <mxGeometry relative="1" as="geometry">
            <mxPoint x="440" y="710" as="sourcePoint" />
            <mxPoint x="600" y="710" as="targetPoint" />
          </mxGeometry>
        </mxCell>
        <mxCell id="Xpk1lyzwH7vKFddRfPGM-14" value="" style="endArrow=none;html=1;rounded=0;exitX=0.5;exitY=0;exitDx=0;exitDy=0;entryX=0.483;entryY=1.008;entryDx=0;entryDy=0;entryPerimeter=0;" edge="1" parent="1" source="Xpk1lyzwH7vKFddRfPGM-1" target="Xpk1lyzwH7vKFddRfPGM-11">
          <mxGeometry relative="1" as="geometry">
            <mxPoint x="440" y="710" as="sourcePoint" />
            <mxPoint x="600" y="710" as="targetPoint" />
          </mxGeometry>
        </mxCell>
        <mxCell id="Xpk1lyzwH7vKFddRfPGM-15" value="Môn" style="whiteSpace=wrap;html=1;align=center;" vertex="1" parent="1">
          <mxGeometry x="960" y="630" width="100" height="40" as="geometry" />
        </mxCell>
        <mxCell id="Xpk1lyzwH7vKFddRfPGM-17" value="Mã môn" style="ellipse;whiteSpace=wrap;html=1;align=center;fontStyle=4;" vertex="1" parent="1">
          <mxGeometry x="860" y="510" width="100" height="40" as="geometry" />
        </mxCell>
        <mxCell id="Xpk1lyzwH7vKFddRfPGM-19" value="" style="endArrow=none;html=1;rounded=0;exitX=0.5;exitY=1;exitDx=0;exitDy=0;entryX=0.5;entryY=0;entryDx=0;entryDy=0;" edge="1" parent="1" source="Xpk1lyzwH7vKFddRfPGM-17" target="Xpk1lyzwH7vKFddRfPGM-15">
          <mxGeometry relative="1" as="geometry">
            <mxPoint x="1130" y="470" as="sourcePoint" />
            <mxPoint x="1290" y="470" as="targetPoint" />
          </mxGeometry>
        </mxCell>
        <mxCell id="Xpk1lyzwH7vKFddRfPGM-20" value="Tên môn" style="ellipse;whiteSpace=wrap;html=1;align=center;" vertex="1" parent="1">
          <mxGeometry x="970" y="470" width="100" height="40" as="geometry" />
        </mxCell>
        <mxCell id="Xpk1lyzwH7vKFddRfPGM-21" value="" style="endArrow=none;html=1;rounded=0;exitX=0.5;exitY=1;exitDx=0;exitDy=0;entryX=0.5;entryY=0;entryDx=0;entryDy=0;" edge="1" parent="1" source="Xpk1lyzwH7vKFddRfPGM-20" target="Xpk1lyzwH7vKFddRfPGM-15">
          <mxGeometry relative="1" as="geometry">
            <mxPoint x="1130" y="470" as="sourcePoint" />
            <mxPoint x="1290" y="470" as="targetPoint" />
          </mxGeometry>
        </mxCell>
        <mxCell id="Xpk1lyzwH7vKFddRfPGM-22" value="Số tín chỉ" style="ellipse;whiteSpace=wrap;html=1;align=center;" vertex="1" parent="1">
          <mxGeometry x="1100" y="450" width="100" height="40" as="geometry" />
        </mxCell>
        <mxCell id="Xpk1lyzwH7vKFddRfPGM-23" value="" style="endArrow=none;html=1;rounded=0;exitX=0.5;exitY=0;exitDx=0;exitDy=0;entryX=0.5;entryY=1;entryDx=0;entryDy=0;" edge="1" parent="1" source="Xpk1lyzwH7vKFddRfPGM-15" target="Xpk1lyzwH7vKFddRfPGM-22">
          <mxGeometry relative="1" as="geometry">
            <mxPoint x="1130" y="470" as="sourcePoint" />
            <mxPoint x="1290" y="470" as="targetPoint" />
          </mxGeometry>
        </mxCell>
        <mxCell id="Xpk1lyzwH7vKFddRfPGM-24" value="Cán bộ" style="whiteSpace=wrap;html=1;align=center;" vertex="1" parent="1">
          <mxGeometry x="460" y="770" width="100" height="40" as="geometry" />
        </mxCell>
        <mxCell id="Xpk1lyzwH7vKFddRfPGM-27" value="" style="shape=link;html=1;rounded=0;exitX=0.5;exitY=1;exitDx=0;exitDy=0;entryX=0.5;entryY=0;entryDx=0;entryDy=0;" edge="1" parent="1" source="Xpk1lyzwH7vKFddRfPGM-24" target="Xpk1lyzwH7vKFddRfPGM-29">
          <mxGeometry relative="1" as="geometry">
            <mxPoint x="370" y="940" as="sourcePoint" />
            <mxPoint x="510" y="900" as="targetPoint" />
          </mxGeometry>
        </mxCell>
        <mxCell id="Xpk1lyzwH7vKFddRfPGM-29" value="D" style="ellipse;whiteSpace=wrap;html=1;align=center;" vertex="1" parent="1">
          <mxGeometry x="490" y="880" width="40" height="40" as="geometry" />
        </mxCell>
        <mxCell id="Xpk1lyzwH7vKFddRfPGM-31" value="" style="endArrow=none;html=1;rounded=0;entryX=0.5;entryY=1;entryDx=0;entryDy=0;exitX=0.5;exitY=0;exitDx=0;exitDy=0;" edge="1" parent="1" source="Xpk1lyzwH7vKFddRfPGM-42" target="Xpk1lyzwH7vKFddRfPGM-29">
          <mxGeometry relative="1" as="geometry">
            <mxPoint x="460" y="1020" as="sourcePoint" />
            <mxPoint x="530" y="940" as="targetPoint" />
          </mxGeometry>
        </mxCell>
        <mxCell id="Xpk1lyzwH7vKFddRfPGM-32" value="" style="shape=requiredInterface;html=1;verticalLabelPosition=bottom;sketch=0;rotation=125;" vertex="1" parent="1">
          <mxGeometry x="460" y="960" width="10" height="10" as="geometry" />
        </mxCell>
        <mxCell id="Xpk1lyzwH7vKFddRfPGM-33" value="" style="endArrow=none;html=1;rounded=0;entryX=0.5;entryY=1;entryDx=0;entryDy=0;exitX=0.5;exitY=0;exitDx=0;exitDy=0;" edge="1" parent="1" source="Xpk1lyzwH7vKFddRfPGM-44" target="Xpk1lyzwH7vKFddRfPGM-29">
          <mxGeometry relative="1" as="geometry">
            <mxPoint x="560" y="1020" as="sourcePoint" />
            <mxPoint x="590" y="940" as="targetPoint" />
          </mxGeometry>
        </mxCell>
        <mxCell id="Xpk1lyzwH7vKFddRfPGM-34" value="" style="shape=requiredInterface;html=1;verticalLabelPosition=bottom;sketch=0;rotation=50;" vertex="1" parent="1">
          <mxGeometry x="540" y="950" width="10" height="20" as="geometry" />
        </mxCell>
        <mxCell id="Xpk1lyzwH7vKFddRfPGM-42" value="Giảng viên" style="whiteSpace=wrap;html=1;align=center;" vertex="1" parent="1">
          <mxGeometry x="390" y="1010" width="100" height="40" as="geometry" />
        </mxCell>
        <mxCell id="Xpk1lyzwH7vKFddRfPGM-44" value="Giảng viên" style="whiteSpace=wrap;html=1;align=center;" vertex="1" parent="1">
          <mxGeometry x="540" y="1010" width="100" height="40" as="geometry" />
        </mxCell>
      </root>
    </mxGraphModel>
  </diagram>
</mxfile>
